<?xml version="1.0" encoding="UTF-8"?>
<svg id="Calque_2" data-name="Calque 2" xmlns="http://www.w3.org/2000/svg" viewBox="0 0 98.37 92.64">
  <defs>
    <style>
      .cls-1 {
        fill: #e8e8e8;
      }
    </style>
  </defs>
  <g id="Calque_4" data-name="Calque 4">
    <g>
      <path class="cls-1" d="m62.84,9.78c.68,3.96,2.28,7.91,4.85,11.13,2.87,3.6,7.14,5.28,11.39,7.08,2.79,1.18,5.6,2.31,8.32,3.61,2.11,1.01,4.2,2.04,5.93,3.57.82.73,2.16,1.95,3.25,2.94.67.61,1.79.16,1.79-.72v-20.38C98.37,7.66,90.24,0,80.3,0h-14.58c-1.28,0-2.42.82-2.73,1.99-.67,2.53-.58,5.27-.14,7.79Z"/>
      <path class="cls-1" d="m95.23,43.65c-2.05-1.51-3.73-3.39-5.64-5.04-2.02-1.74-4.65-2.84-7.1-3.93-3-1.33-6.06-2.53-9.05-3.87-2.33-1.05-4.82-2.1-6.78-3.71-1.64-1.34-2.99-2.93-4.13-4.67-2.45-3.74-4-8.11-4.4-12.49-.14-1.53-.14-3.1.06-4.65.24-1.91-1.27-3.6-3.31-3.6-6.28,0-18.62,0-29.93,0-13.23,0-24.05,10.19-24.05,22.65v44.08c0,2.28,1.32,4.37,3.45,5.45.63.32,1.25.68,1.85,1.07,2.83,1.82,5.27,4.15,7.66,6.43,1.74,1.66,3.37,3.42,4.84,5.3.73.93,1.43,1.86,2.15,2.79,1.13,1.47,2.95,2.33,4.87,2.33h48.03c12.55,0,22.83-9.67,22.83-21.49v-24.04c0-1.02-.5-1.98-1.35-2.61h0Z"/>
      <path class="cls-1" d="m15.63,89.02c-2.02-2.59-4.35-4.84-6.8-7.12-1.29-1.2-2.65-2.34-4.1-3.37-.96-.68-2.04-1.36-3.18-1.89C.83,76.31,0,76.78,0,77.53v.35c0,8.12,7.05,14.76,15.67,14.76h0c1.13,0,1.79-1.21,1.13-2.08-.39-.51-.78-1.03-1.18-1.54Z"/>
    </g>
  </g>
</svg>