<?xml version="1.0" encoding="UTF-8"?>
<svg id="Calque_2" data-name="Calque 2" xmlns="http://www.w3.org/2000/svg" viewBox="0 0 106.4 196.19">
  <defs>
    <style>
      .cls-1 {
        fill: #fff;
      }
    </style>
  </defs>
  <g id="Calque_4" data-name="Calque 4">
    <g>
      <path class="cls-1" d="m58.2,18.67c1.38,7.11,8.31,11.8,15.06,15.43,4.7,2.52,9.66,4.47,13.73,7.76,3.48,2.81,6.13,6.22,8.39,9.81,1.59,2.52,2.96,7.49,5.16,11.41,1.41,2.51,5.85,1.64,5.85-1.15v-31.77C106.4,13.57,90.49,0,71.03,0h-4.71c-2.76,0-5.23,1.51-6.06,3.76-1.8,4.89-3.02,9.99-2.07,14.91Z"/>
      <path class="cls-1" d="m66.38,187.24c-9.84-3.08-20.54-2.99-30.28-6.22-8.67-2.87-13.25-8.3-18.42-14.52-2.93-3.53-6.14-7.32-10.4-9.11C3.91,155.98,0,158.2,0,161.39v4.64c0,16.59,15.92,30.16,35.37,30.16h35.66c1.84,0,3.65-.12,5.41-.36,2.52-.34,3.15-3.18.94-4.27-3.5-1.73-7.24-3.15-11.01-4.33Z"/>
      <path class="cls-1" d="m90.04,58.01c-2.12-4.47-5.23-8.91-9.59-12.05-4.62-3.33-10.38-5.3-15.3-8.29-7.47-4.53-13.78-10.66-14.98-18.66-.68-4.52,0-9.08,1.31-13.55C52.29,2.69,49.83,0,46.47,0h-11.1C15.92,0,0,13.57,0,30.16v114.02c0,2.7,2.32,4.97,5.45,5.38,15.02,2,19.41,20.45,33.57,25.1,5.68,1.87,11.65,2.23,17.56,3.21,5.25.87,10.43,2.17,15.38,3.89,5.28,1.84,10.51,4.16,15.16,7.09,2.21,1.4,5.28,1.28,7.34-.28,7.32-5.53,11.95-13.6,11.95-22.54v-86.58c0-2.06-1.44-3.95-3.69-4.72-7.24-2.47-9.97-11.02-12.67-16.72Z"/>
    </g>
  </g>
</svg>